<svg width="32" height="33" viewBox="0 0 32 33" fill="none" xmlns="http://www.w3.org/2000/svg">
<path opacity="0.1" fill-rule="evenodd" clip-rule="evenodd" d="M0 16.2074C0 7.37084 7.16344 0.207397 16 0.207397C24.8366 0.207397 32 7.37084 32 16.2074C32 25.044 24.8366 32.2074 16 32.2074C7.16344 32.2074 0 25.044 0 16.2074Z" fill="white"/>
<path fill-rule="evenodd" clip-rule="evenodd" d="M22.6677 10.707C23.4021 10.9085 23.9804 11.5022 24.1767 12.2562C24.5333 13.6228 24.5333 16.4741 24.5333 16.4741C24.5333 16.4741 24.5333 19.3253 24.1767 20.6919C23.9804 21.446 23.4021 22.0397 22.6677 22.2413C21.3369 22.6074 16 22.6074 16 22.6074C16 22.6074 10.6631 22.6074 9.33218 22.2413C8.59783 22.0397 8.0195 21.446 7.82323 20.6919C7.46667 19.3253 7.46667 16.4741 7.46667 16.4741C7.46667 16.4741 7.46667 13.6228 7.82323 12.2562C8.0195 11.5022 8.59783 10.9085 9.33218 10.707C10.6631 10.3408 16 10.3408 16 10.3408C16 10.3408 21.3369 10.3408 22.6677 10.707ZM14.4 14.074V19.4074L18.6667 16.7408L14.4 14.074Z" fill="white"/>
</svg>
