<?xml version="1.0" encoding="UTF-8"?>
<svg id="Calque_1" xmlns="http://www.w3.org/2000/svg" version="1.1" viewBox="0 0 32 32">
  <!-- Generator: Adobe Illustrator 29.4.0, SVG Export Plug-In . SVG Version: 2.1.0 Build 152)  -->
  <defs>
    <style>
      .st0, .st1 {
        fill: #fff;
      }

      .st1 {
        fill-rule: evenodd;
        isolation: isolate;
        opacity: .1;
      }
    </style>
  </defs>
  <path class="st1" d="M0,16C0,7.2,7.2,0,16,0s16,7.2,16,16-7.2,16-16,16S0,24.8,0,16Z"/>
  <path class="st0" d="M22.1,9.9c-1.3-1.3-2.7-.5-3.5.4l-8.1,8.1c-.9.9-1.8,2.2-.4,3.5,1.4,1.4,2.7.5,3.5-.4l8.1-8.1c.9-.9,1.7-2.2.4-3.5h0ZM14.3,9.6l1.7,1.7,1.8-1.8c.1-.1.2-.2.4-.3-.2-.9-.7-1.8-2.1-1.8s-1.9.8-2.1,1.8c.1.1.3.2.4.4h0ZM17.8,22.4l-1.8-1.8-1.7,1.7c-.1.1-.3.3-.4.4.2.9.8,1.8,2.1,1.8s1.9-.9,2.1-1.8c-.1-.1-.2-.2-.4-.3h0ZM13.6,13.8h-3.3c-1.2,0-2.8.4-2.8,2.2s.9,1.9,1.8,2.1c.1-.1,4.3-4.3,4.3-4.3h0ZM22.8,13.9c-.1.1-4.3,4.3-4.3,4.3h3.3c1.2,0,2.8-.3,2.8-2.2s-.8-1.9-1.8-2.1ZM14.7,12.7l.6-.6-1.7-1.7c-.9-.9-2.2-1.8-3.5-.4-1,1-.8,2-.2,2.7.2,0,4.9,0,4.9,0ZM17.4,19.3l-.6.6,1.8,1.8c.9.9,2.2,1.7,3.5.4s.7-2,.2-2.8c-.2,0-4.9,0-4.9,0Z"/>
</svg>