<?xml version="1.0" encoding="UTF-8"?>
<svg id="Calque_1" xmlns="http://www.w3.org/2000/svg" version="1.1" viewBox="0 0 32 33">
  <!-- Generator: Adobe Illustrator 29.4.0, SVG Export Plug-In . SVG Version: 2.1.0 Build 152)  -->
  <defs>
    <style>
      .st0, .st1 {
        fill: #fff;
      }

      .st1 {
        fill-rule: evenodd;
        isolation: isolate;
        opacity: .1;
      }
    </style>
  </defs>
  <path class="st1" d="M0,16.2C0,7.4,7.2.2,16,.2s16,7.2,16,16-7.2,16-16,16S0,25,0,16.2Z"/>
  <g>
    <polygon class="st0" points="11.3 24.6 11.3 13.7 7.7 13.7 7.7 24.6 11.3 24.6 11.3 24.6"/>
    <path class="st0" d="M9.5,12.1c1.3,0,2.1-.8,2.1-1.9,0-1.1-.8-1.9-2-1.9s-2.1.8-2.1,1.9.8,1.9,2,1.9h0Z"/>
    <path class="st0" d="M24.5,24.6v-6.3c0-3.4-1.8-5-4.2-5s-2.8,1.1-3.3,1.8v-1.6h-3.7c0,1,0,11,0,11h3.7v-6.1c0-.3,0-.7.1-.9.3-.7.9-1.3,1.9-1.3s1.9,1,1.9,2.5v5.9h3.7,0Z"/>
  </g>
</svg>