<svg width="32" height="33" viewBox="0 0 32 33" fill="none" xmlns="http://www.w3.org/2000/svg">
<path opacity="0.1" fill-rule="evenodd" clip-rule="evenodd" d="M0 16.2074C0 7.37084 7.16344 0.207397 16 0.207397C24.8366 0.207397 32 7.37084 32 16.2074C32 25.044 24.8366 32.2074 16 32.2074C7.16344 32.2074 0 25.044 0 16.2074Z" fill="white"/>
<path fill-rule="evenodd" clip-rule="evenodd" d="M15.5208 13.2124L15.5544 13.766L14.9948 13.6982C12.9579 13.4383 11.1784 12.557 9.66756 11.0769L8.92891 10.3425L8.73865 10.8848C8.33575 12.0938 8.59316 13.3706 9.43253 14.2293C9.8802 14.7038 9.77948 14.7716 9.00725 14.4891C8.73865 14.3987 8.50363 14.3309 8.48124 14.3648C8.4029 14.4439 8.6715 15.4721 8.88414 15.8789C9.17513 16.4438 9.76828 16.9974 10.4174 17.3251L10.9658 17.585L10.3167 17.5963C9.68994 17.5963 9.66756 17.6076 9.73471 17.8448C9.95854 18.5793 10.8427 19.3589 11.8276 19.6978L12.5214 19.9351L11.9171 20.2967C11.0218 20.8164 9.96973 21.1102 8.91772 21.1328C8.41409 21.1441 8 21.1893 8 21.2231C8 21.3361 9.36538 21.9689 10.16 22.2174C12.5438 22.9518 15.3753 22.6355 17.5017 21.3813C19.0126 20.4887 20.5235 18.7148 21.2286 16.9974C21.6091 16.0822 21.9896 14.41 21.9896 13.6078C21.9896 13.0881 22.0232 13.0203 22.6499 12.3989C23.0192 12.0373 23.3662 11.6419 23.4333 11.5289C23.5452 11.3142 23.534 11.3142 22.9633 11.5063C22.012 11.8452 21.8777 11.8 22.3477 11.2916C22.6947 10.93 23.1088 10.2747 23.1088 10.0826C23.1088 10.0487 22.9409 10.1052 22.7506 10.2069C22.5492 10.3199 22.1015 10.4894 21.7658 10.5911L21.1614 10.7832L20.613 10.4103C20.3108 10.2069 19.8856 9.98095 19.6617 9.91315C19.0909 9.75497 18.218 9.77757 17.7032 9.95835C16.3042 10.4668 15.4201 11.7774 15.5208 13.2124Z" fill="white"/>
</svg>
