<?xml version="1.0" encoding="UTF-8"?>
<svg id="Calque_1" xmlns="http://www.w3.org/2000/svg" version="1.1" viewBox="0 0 47.7 48">
  <!-- Generator: Adobe Illustrator 30.1.0, SVG Export Plug-In . SVG Version: 2.1.1 Build 136)  -->
  <path d="M11,48c-1.3,0-1.3-2,0-2h13.6c1.3,0,1.3,2,0,2h-13.6ZM31,28.9h-6.7c-2.6,0-3.9-2.1-2.6-4.3L35,1.5c1.6-2.8,4.9-1.4,4.4,2.1l-2.2,15.8h7.4c2.7,0,3.9,2.2,2.6,4.3l-13.2,22.7c-1.8,3-5.1,1.2-4.8-1.5l1.9-16ZM24.4,26.9h7.8c.6,0,1.1.5.9,1.1l-2,17.2c-.1.6.5,1.4,1,.4l13.2-22.7c.6-.9.2-1.4-.8-1.4h-8.5c-.6,0-1-.5-.9-1.1l2.3-17c.4-1.4-.4-1.6-.7-.9l-13.2,23c-.5.9-.2,1.4.8,1.4h0ZM16.9,2.1c-1.3,0-1.3-2,0-2h13.6c1.3,0,1.3,2,0,2h-13.6ZM8.9,13.3c-1.3,0-1.3-2,0-2h13.4c1.4,0,1.4,2,0,2h-13.4ZM1,24.9c-1.3,0-1.3-2,0-2h13.4c1.3,0,1.3,2,0,2H1ZM8.2,36.2c-1.3,0-1.3-2,0-2h13.4c1.3,0,1.3,2,0,2h-13.4Z"/>
</svg>