<?xml version="1.0" encoding="UTF-8"?>
<svg id="Calque_1" xmlns="http://www.w3.org/2000/svg" version="1.1" viewBox="0 0 95.6 90.7">
  <!-- Generator: Adobe Illustrator 30.1.0, SVG Export Plug-In . SVG Version: 2.1.1 Build 136)  -->
  <path d="M47.8,0C56.2,0,63.7,3.4,69.2,8.9c5.5,5.5,8.9,13,8.9,21.4,0,12.4-4,16.9-7.8,21.3-3.1,3.6-6.2,7-6.2,15.8v15.7c0,2.1-.9,4-2.3,5.4-1.4,1.4-3.3,2.3-5.4,2.3h-17.1c-2.1,0-4-.9-5.4-2.3-1.4-1.4-2.3-3.3-2.3-5.4v-15.6h0c0-8.9-3-12.4-6.2-15.9-3.9-4.4-7.8-8.9-7.8-21.3s3.4-15.9,8.9-21.4C31.9,3.4,39.5,0,47.8,0h0ZM41.2,83.4c-1.1,0-2-.9-2-2s.9-2,2-2h13.2c1.1,0,2,.9,2,2s-.9,2-2,2h-13.2ZM41.2,76.6c-1.1,0-2-.9-2-2s.9-2,2-2h13.2c1.1,0,2,.9,2,2s-.9,2-2,2h-13.2ZM49.6,29.4l7.5,15.7c.2.3.3.6.3,1v19.2h2.7c.4-8.9,3.7-12.6,7.1-16.5,3.4-3.8,6.8-7.8,6.8-18.6s-2.9-13.8-7.7-18.6c-4.7-4.7-11.3-7.7-18.6-7.7s-13.8,2.9-18.6,7.7c-4.7,4.7-7.7,11.3-7.7,18.6,0,10.9,3.5,14.8,6.8,18.6,3.4,3.9,6.7,7.6,7.1,16.5h2.7v-19.2c0-.4,0-.7.3-1l7.5-15.7c.5-1,1.7-1.4,2.7-.9.4.2.7.5.9.9h0ZM52.2,44.1l-4.4-9.2-4.4,9.2h8.9ZM45.8,65.3v-17.2h-3.6v17.2h3.6ZM88.5,51.4c1,.5,1.3,1.8.7,2.7-.5,1-1.8,1.3-2.7.7l-5.1-2.9c-1-.5-1.3-1.8-.7-2.7s1.8-1.3,2.7-.7l5.1,2.9ZM14.2,8.5c1,.5,1.3,1.8.7,2.7-.5,1-1.8,1.3-2.7.7l-5.1-2.9c-1-.5-1.3-1.8-.7-2.7.5-1,1.8-1.3,2.7-.7l5.1,2.9ZM86.5,5.6c1-.6,2.2-.2,2.7.7.6,1,.2,2.2-.7,2.7l-5.1,2.9c-1,.6-2.2.2-2.7-.7s-.2-2.2.7-2.7l5.1-2.9ZM12.2,48.5c1-.5,2.2-.2,2.7.7s.2,2.2-.7,2.7l-5.1,2.9c-1,.5-2.2.2-2.7-.7-.5-1-.2-2.2.7-2.7l5.1-2.9ZM93.6,28.2c1.1,0,2,.9,2,2s-.9,2-2,2h-5.8c-1.1,0-2-.9-2-2s.9-2,2-2h5.8ZM7.8,28.2c1.1,0,2,.9,2,2s-.9,2-2,2H2c-1.1,0-2-.9-2-2s.9-2,2-2h5.8ZM60.1,69.3h-24.5v13.7c0,1,.4,1.9,1.1,2.6.7.7,1.6,1.1,2.6,1.1h17.1c1,0,1.9-.4,2.6-1.1.7-.7,1.1-1.6,1.1-2.6v-13.7h0Z"/>
</svg>