<?xml version="1.0" encoding="UTF-8"?>
<svg id="Calque_1" xmlns="http://www.w3.org/2000/svg" version="1.1" viewBox="0 0 99 99">
  <!-- Generator: Adobe Illustrator 29.3.1, SVG Export Plug-In . SVG Version: 2.1.0 Build 151)  -->
  <defs>
    <style>
      .st0 {
        fill-rule: evenodd;
      }
    </style>
  </defs>
  <path class="st0" d="M73.3,47c.9,0,1.9-.1,2.7,0,1.6,0,3-1.3,3-3v-2.1c4.8,1.3,9.4,2.8,13.9,4.7,2.7,1.2,6.2-.8,6.1-3.8V9.8c0-1.9-1.3-3.5-3.2-4-7.3-1.9-14.9-3.3-22.7-4.3C50.1-1.4,25.6,0,3.3,5.8,1.4,6.2,0,7.8,0,9.8v33.1c1.1,7.7,9,2.2,13.5,1,2.2-.7,4.4-1.4,6.6-1.9,0,.8,0,1.6,0,2.1,0,3.2,3.3,3,5.7,3v1.7c0,.8.3,1.5.8,2,2,7.4,6.8,12.4,12.5,15.1,0,1.5,0,3.3,0,5.2h-11.2s-.4,0-.4,0v-3.8c0-1.1-.6-2-1.5-2.6l-10.7-6.2c-.9-.5-2-.6-3,0l-10.7,6.2c-.9.5-1.5,1.5-1.5,2.6.1.9-.4,13.5.4,13.9,0,.9,11.1,6.7,11.8,7.3.7.4,1.4.4,2.2.2-.1.8-.2,1.6-.5,2.4-.9,4,2.4,8.2,6.6,8h57.9c4.1.1,7.5-4,6.6-8l-1-5c1.6,1,3.9,2.3,4.5,2.2.7.3,8.5-4.6,9.2-5,.8-.4,1.2-1.2,1.2-2.1v-9.3c0-.9-.5-1.7-1.2-2.1l-8-4.6c-.8-.4-1.7-.4-2.4,0l-8,4.6c-.8.4-1.2,1.2-1.2,2.1v1.6c-1.9-1.5-4.2-2.5-6.9-2.5h-11.3v-5.2c6-2.8,10.9-8,12.7-15.8h0c.4-.6.6-1.2.6-1.9v-1ZM27.4,33.7v-1.7c0-.1,0-.2,0-.4,0-1.1.9-1.9,1.9-1.9h40.3c1,0,1.7.7,1.9,1.6,0,.2,0,.4,0,.6v1.7c-.7-.6-1.7-1-2.7-1H30.2c-1,0-2,.4-2.7,1h0ZM69.7,28.1H29.4c-.6,0-1.1.2-1.6.4,4-23.7,39-24.5,43.4,0-.5-.2-1-.4-1.5-.4h0ZM44.4,49.9h-15.8c-.7,0-1.2-.5-1.2-1.2v-2.5s0,0,0,0h0v-9.3c0-1.4,1.2-2.6,2.7-2.6h38.8c1.4,0,2.6,1.2,2.7,2.6v11.2c0,1.1-.9,1.9-1.9,1.9h-15.3c-2.7-4-7.3-4-9.9,0h0ZM52.3,49.9h-5.7s0,0,0,0c.7-.9,1.7-1.3,2.8-1.3s2.1.4,2.8,1.3c0,0,0,0,0,0h0ZM77.4,44c0,1.9-2.9,1.2-4.1,1.3v-10.5c.7.1,3.2-.3,3.7.4.8.3.2,8.1.4,8.7h0ZM5.6,45.1c-1.6.8-3.9-.4-3.9-2.3V9.8c0-.6.2-1.1.5-1.5C24.1.8,49.8.6,72.8,3.1c7.8,1,15.3,2.4,22.5,4.3,1.2.3,2,1.2,2,2.4v33.1c0,1.9-2.2,3.1-3.9,2.3-4.7-2-9.6-3.6-14.5-4.9v-4c0-3.2-3.3-3-5.7-3v-.9c0-.1,0-.2,0-.4v-.3c0,0,0-.1,0-.2-1.9-30.1-45.4-30.1-47.3,0,0,0,0,.1,0,.2v.4c0,.1,0,.2,0,.3v.9c-1.6,0-3.9-.3-4.8.9-1,.6-1,3.5-.9,6.1-5,1.3-9.9,2.9-14.5,4.9h0ZM23.1,45.3c-.7,0-1.3-.6-1.3-1.3v-7.8c0-1.9,2.9-1.2,4.1-1.3v4.6s0,0,0,0c0,1,0,4.1,0,5.8h-2.7ZM18.5,84.9s0,0,0,0c-.9-.5-1.6-.9-1.7-1,0,0,0,0,0-.1v-6.2c0-.1,0-.2.1-.2l5.4-3.1s0,0,.1,0,0,0,.1,0l5.4,3.1c.1,0,.1.2.1.2v6.2c0,.1,0,.2-.1.2l-5.4,3.1c0,0-.2,0-.3,0,0,0-2.2-1.2-3.8-2.1h0ZM13.1,86.9l-10.7-6.2c-.4-.3-.7-.7-.7-1.2v-12.4c0-.3,0-.5.2-.7.1-.2.3-.3.5-.5l10.7-6.2c.4-.2.9-.2,1.4,0l10.7,6.2c.4.3.7.7.7,1.2v7.1c-1.2-.7-2.2-1.2-2.5-1.4-.6-.4-1.3-.4-1.9,0-.5.4-5.9,3.1-6.1,3.8-.5.5-.2,6.4-.3,7.1,0,.7.4,1.3,1,1.6l.5.3c-.4.2-.8.5-1.2.8,0,0-.1,0-.2,0-.9.5-1.7.8-2.1.4h0ZM80.1,71.2l8-4.6c.3-.2.6-.2.8,0l8,4.6c.1,0,.2.2.3.3,0,.1.1.3.1.4v9.3c0,.3-.1.6-.4.7l-8,4.6c-.1,0-.3.1-.4.1,0,.2-3.8-2.1-4.9-2.7v-.7c-.8-3.1-2-5.9-3.9-8.1,0-.9-.3-3.8.4-3.9h0ZM71.2,72.6c2.8,0,5,1.1,6.8,2.9,2.2,2,3.4,5.5,4.2,9.1,0,0,0,0,0,0,.5,2.4.9,4.7,1.3,6.6.7,3-1.9,6.2-5,6.1H20.6c-.8,0-1.5-.2-2.2-.5-2-1-3.3-3.4-2.8-5.6.1-1.2.6-2.5.7-3.5l1.9-1.1,3.2,1.9c.6.3,1.3.3,1.9,0l5.4-3.1c.6-.3.9-1,.9-1.6,0-.7.2-6.7-.2-7.1,0-.3-.9-.8-1.9-1.4v-2.6c2.3,0,9.3,0,11.7,0,.1,3.3.8,6.5,3,8.4,6.1,6.5,18,1.7,17.7-7.3v-1h11.3ZM58.3,73.6c-.3,11.5-17.2,11.5-17.5,0v-7.2c5.6,2.1,11.9,2.1,17.5,0,0,0,0,7.2,0,7.2ZM28.7,51.5h41c.3,0,.5,0,.7-.1-6.5,19.8-35.1,20.1-41.8.1h0Z"/>
</svg>