<?xml version="1.0" encoding="UTF-8"?>
<svg id="Calque_1" xmlns="http://www.w3.org/2000/svg" version="1.1" xmlns:xlink="http://www.w3.org/1999/xlink" viewBox="0 0 41.6 73">
  <!-- Generator: Adobe Illustrator 29.3.1, SVG Export Plug-In . SVG Version: 2.1.0 Build 151)  -->
  <path d="M33.2,73H8.3c-4.6,0-8.3-3.7-8.3-8.3V8.3C0,3.7,3.7,0,8.3,0h24.9c4.6,0,8.3,3.7,8.3,8.3v56.4c0,4.6-3.7,8.3-8.3,8.3ZM8.3,1.3c-3.9,0-7,3.1-7,7v56.4c0,3.9,3.1,7,7,7h24.9c3.9,0,7-3.1,7-7V8.3c0-3.9-3.1-7-7-7,0,0-24.9,0-24.9,0Z"/>
  <path d="M28.2,5.4h-14.8c-.4,0-.7-.3-.7-.7s.3-.7.7-.7h14.8c.4,0,.7.3.7.7s-.3.7-.7.7Z"/>
  <path d="M14.4,59.2c4.1,0,7.4-3.3,7.4-7.4v-7.7l.4.4c1.4,1.2,3.1,1.9,5,1.9,4.1,0,7.4-3.3,7.4-7.4s-1.2-4.8-3.3-6.2l-.3-.2.3-.2c2-1.4,3.3-3.7,3.3-6.2,0-4.1-3.3-7.4-7.4-7.4h-12.8c-4.1,0-7.4,3.3-7.4,7.4s1.2,4.8,3.3,6.2l.3.2-.3.2c-2.1,1.4-3.3,3.7-3.3,6.2s1.2,4.8,3.3,6.2l.3.2-.3.2c-2.1,1.4-3.3,3.7-3.3,6.2,0,4.1,3.3,7.4,7.4,7.4ZM32.5,39c0,3-2.4,5.4-5.4,5.4s-5.4-2.4-5.4-5.4,2-4.9,4.6-5.3c.4,0,.9,0,1.4,0,2.7.3,4.8,2.6,4.8,5.3ZM21.8,20.9h5.4c3,0,5.4,2.4,5.4,5.4s-2,5-4.7,5.3c-.2,0-.4,0-.6,0h-5.4v-10.7ZM9,26.3c0-3,2.4-5.4,5.4-5.4h5.4v10.7h-5.4c-.2,0-.3,0-.5,0-2.8-.3-4.8-2.6-4.8-5.3ZM9,39c0-2.8,2.1-5.1,4.8-5.3.2,0,.4,0,.6,0h5.4v10.7h-5.4c-3,0-5.4-2.4-5.4-5.4ZM14.4,46.5h5.4v5.4c0,3-2.4,5.4-5.4,5.4s-5.4-2.4-5.4-5.4,2.4-5.4,5.4-5.4Z"/>
</svg>