<?xml version="1.0" encoding="UTF-8"?>
<svg id="Calque_1" xmlns="http://www.w3.org/2000/svg" version="1.1" viewBox="0 0 22 22">
  <!-- Generator: Adobe Illustrator 30.1.0, SVG Export Plug-In . SVG Version: 2.1.1 Build 136)  -->
  <defs>
    <style>
      .st0 {
        fill-rule: evenodd;
      }
    </style>
  </defs>
  <path class="st0" d="M11,2c5,0,9,4,9,9s-4,9-9,9H2v-9C2,6,6,2,11,2ZM22,11C22,4.9,17.1,0,11,0S0,4.9,0,11v10c0,.6.4,1,1,1h10c6.1,0,11-4.9,11-11Z"/>
  <path d="M6,12c0-.6.4-1,1-1s1,.4,1,1-.4,1-1,1-1-.4-1-1Z"/>
  <path d="M10,12c0-.6.4-1,1-1s1,.4,1,1-.4,1-1,1-1-.4-1-1Z"/>
  <path d="M14,12c0-.6.4-1,1-1s1,.4,1,1-.4,1-1,1-1-.4-1-1Z"/>
</svg>