<?xml version="1.0" encoding="UTF-8"?>
<svg id="Calque_1" xmlns="http://www.w3.org/2000/svg" version="1.1" xmlns:xlink="http://www.w3.org/1999/xlink" viewBox="0 0 238.1 44">
  <!-- Generator: Adobe Illustrator 29.3.1, SVG Export Plug-In . SVG Version: 2.1.0 Build 151)  -->
  <defs>
    <style>
      .st0 {
        fill: #010202;
      }

      .st1 {
        fill: none;
      }

      .st2 {
        clip-path: url(#clippath);
      }
    </style>
    <clipPath id="clippath">
      <rect class="st1" width="238" height="44"/>
    </clipPath>
  </defs>
  <g class="st2">
    <g>
      <path class="st0" d="M16,2.3c3.7,0,7.1,1.4,9.7,3.6l.9-1c-2.8-2.5-6.5-4-10.6-4C7,.9,0,8.4,0,17.5s7.1,16.5,16,16.5,7.8-1.5,10.6-3.9l-.9-1c-2.6,2.2-5.9,3.6-9.6,3.6-8.2,0-14.6-6.8-14.6-15.1S7.9,2.3,16.1,2.3c0,0-.1,0-.1,0Z"/>
      <path class="st0" d="M51.5,17.1c-1.9-3.5-5.7-5.9-10.1-5.9-6.3,0-11.5,5.1-11.5,11.4s5.2,11.4,11.5,11.4,8.2-2.4,10.1-5.9v5.3h1.4V11.7h-1.4v5.3h0ZM41.4,32.7c-5.5,0-10.1-4.5-10.1-10s4.5-10,10.1-10,10.1,4.3,10.1,10.2-4.6,9.8-10.1,9.8Z"/>
      <path class="st0" d="M61.5,0h-1.4v33.5h1.4V0Z"/>
      <path class="st0" d="M76.1,32l-8.7-20.2h-1.6l9.5,21.9-4.4,10.3h1.6l14.1-32.2h-1.6l-8.9,20.2Z"/>
      <path class="st0" d="M102.4,11.2c-4.4,0-8.2,2.4-10.1,5.9v-5.3h-1.4v32.2h1.4v-15.8c1.9,3.5,5.7,5.9,10.1,5.9,6.3,0,11.5-5.1,11.5-11.4s-5.2-11.4-11.5-11.4M102.4,32.7c-5.5,0-10.1-4.3-10.1-10.2s4.6-9.8,10.1-9.8,10.1,4.5,10.1,10-4.5,10-10.1,10Z"/>
      <path class="st0" d="M127.3,22.1l-3.3-.7c-1.8-.4-4.3-1.4-4.3-4.4s2.3-4.3,5.4-4.3,5,1.5,5.3,3.9h1.4c-.3-3.2-3.1-5.3-6.7-5.3s-6.9,2.4-6.9,5.8,3,5.1,5.4,5.6l3.3.7c3.1.8,4.3,2.5,4.3,4.5s-2.4,4.8-6.1,4.8-5.7-2.2-6.4-4.1h-1.4c.8,3.7,4.2,5.5,7.8,5.5s7.5-2.6,7.5-6.2-1.4-4.9-5.4-5.8h0Z"/>
      <path class="st0" d="M152,20.8h-11.7v-9.5h-3.2v22.7h3.2v-10.4h11.7v10.4h3.3V11.3h-3.3v9.5Z"/>
      <path class="st0" d="M186.4,5.9c-1.5-1.4-3.2-2.5-5.2-3.3s-4.2-1.2-6.6-1.2-4.6.4-6.6,1.2c-2,.8-3.7,1.9-5.2,3.3s-2.6,3.1-3.4,5.1c-.8,2-1.2,4.2-1.2,6.7s.4,4.6,1.2,6.6,2,3.7,3.4,5.2c1.5,1.5,3.2,2.6,5.2,3.4s4.2,1.2,6.6,1.2,4.6-.4,6.6-1.2,3.8-1.9,5.2-3.4c1.5-1.5,2.6-3.2,3.4-5.2.8-2,1.2-4.2,1.2-6.6s-.4-4.6-1.2-6.7c-.8-2-2-3.7-3.4-5.1ZM185.6,22.6c-.6,1.5-1.3,2.8-2.4,4-1,1.1-2.3,2-3.7,2.7-1.5.6-3.1,1-4.9,1s-3.4-.3-4.8-1c-1.4-.6-2.7-1.5-3.7-2.7-1-1.1-1.8-2.5-2.4-4-.6-1.5-.8-3.1-.8-4.9s.3-3.3.8-4.8c.6-1.5,1.3-2.8,2.3-4,1-1.1,2.2-2,3.7-2.7,1.4-.7,3.1-1,4.9-1s3.4.3,4.9,1,2.7,1.6,3.7,2.7,1.8,2.5,2.4,4c.6,1.5.8,3.1.8,4.8s-.3,3.4-.8,4.9"/>
      <path class="st0" d="M206.9,28.8h0l-7-17.5h-5v22.7h3.1V15h0l7.7,19h2.1l7.7-19h0v19h3.2V11.3h-5.1l-6.9,17.5h.2Z"/>
      <path class="st0" d="M226.1,31.2v-7.6h10.8v-2.7h-10.8v-6.8h11.5v-2.8h-14.6v22.7h15.1v-2.8h-12Z"/>
    </g>
  </g>
</svg>