<?xml version="1.0" encoding="UTF-8"?>
<svg id="Calque_2" xmlns="http://www.w3.org/2000/svg" version="1.1" viewBox="0 0 2491 405">
  <!-- Generator: Adobe Illustrator 29.3.1, SVG Export Plug-In . SVG Version: 2.1.0 Build 151)  -->
  <g id="Calque_1-2">
    <path d="M1829.4,311V18h74.2l-.9,370h-78.3c-11,0-29.5-11-38-17.9l-296.2-273.4-3.3-.9v292.2h-42.6c-12.3,0-30.7-19.3-30.7-31.6V18h102.1l313.7,293.1Z"/>
    <path d="M2385.3,18v64.1h-336.1l.9,88.8h256.4l-.9,64.1h-256.4v71.9c0,6.5,12.4,16.9,18.8,16.9h317.3l.9,64.1h-379.6c-11.3,0-31.6-18.2-31.6-29.8V18h410.3Z"/>
    <path d="M183.6,17v150.2L424,17h130.5l-286.7,179.1,305.9,191.9h-123.2c-16.8-1.6-32.4-7.2-47.1-15.1l-219.8-136.9v152h-42.6c-14.4,0-36.2-18.6-36.2-33.4V17h78.8Z"/>
    <path d="M900.7,18c-.3,68.2.4,136.5,0,204.7-.1,26-3.3,56.8-1,82.4.8,9.4,8.1,18.2,17.9,18.8l279.8-1v64.1l-337.5.9c-13.1.4-34.4-17.7-34.4-30.7V18h75.1Z"/>
    <path d="M1342.1,18v370h-42.6c-10.8,0-30.7-18.1-30.7-28.8V18h73.3Z"/>
    <circle cx="651.8" cy="202.4" r="76.8"/>
  </g>
</svg>