<?xml version="1.0" encoding="UTF-8"?>
<svg id="Calque_1" xmlns="http://www.w3.org/2000/svg" version="1.1" xmlns:cc="http://creativecommons.org/ns#" xmlns:dc="http://purl.org/dc/elements/1.1/" xmlns:inkscape="http://www.inkscape.org/namespaces/inkscape" xmlns:rdf="http://www.w3.org/1999/02/22-rdf-syntax-ns#" xmlns:sodipodi="http://sodipodi.sourceforge.net/DTD/sodipodi-0.dtd" xmlns:svg="http://www.w3.org/2000/svg" viewBox="0 0 229.3 54.6">
  <!-- Generator: Adobe Illustrator 29.5.0, SVG Export Plug-In . SVG Version: 2.1.0 Build 137)  -->
  <defs>
    <style>
      .st0 {
        fill: #ffa300;
      }

      .st1 {
        fill: #80276c;
      }
    </style>
  </defs>
  <polygon class="st0" points=".7 50.4 16.1 50.4 23.8 35 8.4 35 .7 50.4"/>
  <polygon class="st1" points="54.5 50.4 39.1 50.4 16.1 4.3 31.5 4.3 54.5 50.4"/>
  <polygon class="st1" points="69.9 50.4 85.3 50.4 62.2 4.3 54.5 19.7 69.9 50.4"/>
  <g>
    <path class="st1" d="M111.5,19.4h-8.5l-1.9,5.1h-3.6l7.9-20.2h4l7.8,20.2h-3.7l-1.9-5.1ZM104.1,16.2h6.2l-3.1-8.3-3.1,8.3Z"/>
    <path class="st1" d="M127.5,13.9c-.4,0-.7,0-1.1,0-2.5,0-3.7,1.5-3.7,4.1v6.6h-3.3v-13.9h3.2v2.2c.7-1.5,2.2-2.4,4-2.4s.7,0,.9,0v3.4h0Z"/>
    <path class="st1" d="M135.1,10.6h2.9v2.9h-2.9v6.4c0,1.2.5,1.7,1.8,1.7s1,0,1.1-.1v2.7c-.2,0-.8.3-2,.3-2.5,0-4.2-1.5-4.2-4.1v-7h-2.5v-2.9h.7c1.5,0,2.2-.9,2.2-2.2v-2.1h3v4.2h0Z"/>
    <path class="st1" d="M143.3,19.9c.1,1.3,1.1,2.4,2.8,2.4s2.1-.7,2.1-1.6-.5-1.3-1.6-1.5l-2-.5c-2.5-.5-3.7-2.2-3.7-4s2.2-4.5,5.1-4.5,5.1,2.5,5.4,3.9l-2.8.8c-.1-.8-.7-2.1-2.5-2.1s-2,.7-2,1.6.5,1.3,1.4,1.4l2,.4c2.6.6,4,2.2,4,4.2s-1.7,4.4-5.3,4.4-5.6-2.6-5.7-4.2l2.9-.8Z"/>
    <path class="st1" d="M111.6,46.5c-.7,2.4-2.9,4.4-6.3,4.4s-7.1-2.7-7.1-7.4,3.3-7.3,6.7-7.3,6.8,2.8,6.8,7.2,0,1,0,1.1h-10.1c0,2.1,1.7,3.6,3.8,3.6s3-1.1,3.5-2.4l2.8.9ZM108.4,42c0-1.6-1.1-3.1-3.4-3.1s-3.3,1.6-3.4,3.1h6.8Z"/>
    <path class="st1" d="M119.1,36.6h2.9v2.9h-2.9v6.4c0,1.2.5,1.7,1.8,1.7s1,0,1.1-.1v2.7c-.2,0-.8.3-2,.3-2.5,0-4.2-1.5-4.2-4.1v-7h-2.5v-2.9h.7c1.5,0,2.2-.9,2.2-2.2v-2.1h3v4.2h0Z"/>
    <path class="st1" d="M151.4,50.4v-14.9l-6.3,14.9h-3l-6.2-14.8v14.8h-3.3v-20.2h4.6l6.5,15.4,6.5-15.4h4.6v20.2h-3.4Z"/>
    <path class="st1" d="M171.6,46.5c-.7,2.4-2.9,4.4-6.3,4.4s-7.1-2.7-7.1-7.4,3.3-7.3,6.7-7.3,6.8,2.8,6.8,7.2,0,1,0,1.1h-10.1c0,2.1,1.7,3.6,3.8,3.6s3-1.1,3.5-2.4l2.8.9ZM168.4,42c0-1.6-1.1-3.1-3.4-3.1s-3.3,1.6-3.4,3.1h6.8ZM166.2,34.8h-2.7l2.5-4.2h3.9l-3.8,4.2Z"/>
    <path class="st1" d="M179.1,36.6h2.9v2.9h-2.9v6.4c0,1.2.5,1.7,1.8,1.7s1,0,1.1-.1v2.7c-.2,0-.8.3-2,.3-2.5,0-4.2-1.5-4.2-4.1v-7h-2.5v-2.9h.7c1.5,0,2.2-.9,2.2-2.2v-2.1h3v4.2h0Z"/>
    <path class="st1" d="M187,29.5c1.2,0,2.2,1,2.2,2.2s-1,2.2-2.2,2.2-2.2-.9-2.2-2.2c0-1.2,1-2.2,2.2-2.2ZM185.4,50.4v-13.9h3.3v13.9h-3.3Z"/>
    <path class="st1" d="M205.2,46.5c-.7,2.4-2.9,4.4-6.3,4.4s-7.1-2.7-7.1-7.4,3.3-7.3,6.7-7.3,6.8,2.8,6.8,7.2,0,1,0,1.1h-10.1c0,2.1,1.7,3.6,3.8,3.6s3-1.1,3.5-2.4l2.8.9ZM202.1,42c0-1.6-1.1-3.1-3.4-3.1s-3.3,1.6-3.4,3.1h6.8Z"/>
    <path class="st1" d="M216.7,39.8c-.4,0-.7,0-1.1,0-2.5,0-3.7,1.5-3.7,4.1v6.6h-3.3v-13.9h3.2v2.2c.7-1.5,2.2-2.4,4-2.4s.7,0,.9,0v3.3h0Z"/>
    <path class="st1" d="M221.1,45.9c.1,1.3,1.1,2.4,2.8,2.4s2.1-.7,2.1-1.6-.5-1.3-1.6-1.5l-2-.5c-2.5-.5-3.7-2.2-3.7-4s2.2-4.5,5.1-4.5,5.1,2.5,5.4,3.9l-2.8.8c-.1-.8-.7-2.1-2.5-2.1s-2,.7-2,1.6.5,1.3,1.4,1.4l2.1.4c2.6.6,4,2.2,4,4.2s-1.7,4.4-5.3,4.4-5.6-2.6-5.7-4.2l2.8-.8Z"/>
  </g>
  <g>
    <path class="st0" d="M161.9,6.6c0-.6-.6-1.4-1.7-1.4s-1.6.6-1.6,1.4.4,1.1,1.1,1.2l1.2.3c1.4.3,2.2,1.2,2.2,2.3s-1.1,2.4-2.9,2.4-2.9-1.3-3.1-2.5l1.1-.4c0,.9.7,1.8,2,1.8s1.7-.6,1.7-1.3-.4-1.1-1.2-1.3l-1.2-.3c-1.2-.3-2-1-2-2.2s1.2-2.5,2.7-2.5,2.6,1.1,2.8,2l-1,.4Z"/>
    <path class="st0" d="M165.3,9.8c0,1.3.8,2,1.7,2s1.4-.7,1.6-1.1l1,.4c-.3.8-1.1,1.7-2.5,1.7s-2.8-1.3-2.8-3,1.2-3,2.8-3,2.2.9,2.5,1.8l-1,.4c-.2-.5-.5-1.2-1.5-1.2s-1.8.7-1.8,2Z"/>
    <path class="st0" d="M171.7,4.1c.4,0,.8.4.8.8s-.4.8-.8.8-.8-.4-.8-.8.4-.8.8-.8ZM171.1,12.6v-5.6h1.1v5.6h-1.1Z"/>
    <path class="st0" d="M179.3,11c-.3,1-1.2,1.8-2.5,1.8s-2.8-1.1-2.8-3,1.3-2.9,2.7-2.9,2.7,1.2,2.7,2.9,0,.3,0,.4h-4.2c0,1,.7,1.7,1.7,1.7s1.4-.5,1.6-1.1l1,.3ZM178.2,9.2c0-.8-.5-1.4-1.5-1.4s-1.5.7-1.5,1.4h3.1Z"/>
    <path class="st0" d="M182.2,12.6h-1.1v-5.6h1.1v.8c.4-.7,1.1-1,1.7-1,1.3,0,2,1,2,2.2v3.5h-1.1v-3.4c0-.8-.3-1.4-1.3-1.4s-1.3.7-1.3,1.5v3.3h0Z"/>
    <path class="st0" d="M188.6,9.8c0,1.3.8,2,1.7,2s1.4-.7,1.6-1.1l1,.4c-.3.8-1.1,1.7-2.5,1.7s-2.8-1.3-2.8-3,1.2-3,2.8-3,2.2.9,2.5,1.8l-1,.4c-.2-.5-.5-1.2-1.5-1.2s-1.8.7-1.8,2Z"/>
    <path class="st0" d="M199.2,11c-.3,1-1.2,1.8-2.5,1.8s-2.8-1.1-2.8-3,1.3-2.9,2.7-2.9,2.7,1.2,2.7,2.9,0,.3,0,.4h-4.2c0,1,.7,1.7,1.7,1.7s1.4-.5,1.6-1.1l1,.3ZM198.1,9.2c0-.8-.5-1.4-1.5-1.4s-1.5.7-1.5,1.4h3.1Z"/>
    <path class="st0" d="M201.5,10.8c0,.6.5,1.1,1.3,1.1s.9-.4.9-.7-.3-.6-.7-.7l-.9-.2c-.9-.2-1.4-.8-1.4-1.6s.9-1.8,2-1.8,2,1,2.1,1.5l-1,.4c0-.3-.3-.9-1.2-.9s-.9.4-.9.7.2.6.6.7l.9.2c1,.2,1.5.8,1.5,1.6s-.7,1.7-2,1.7-2.2-1-2.3-1.6l1.1-.4Z"/>
    <path class="st0" d="M214.7,11c-.3,1-1.2,1.8-2.5,1.8s-2.8-1.1-2.8-3,1.3-2.9,2.7-2.9,2.7,1.2,2.7,2.9,0,.3,0,.4h-4.2c0,1,.7,1.7,1.7,1.7s1.4-.5,1.6-1.1l1,.3ZM213.6,9.2c0-.8-.5-1.4-1.5-1.4s-1.5.7-1.5,1.4h3.1Z"/>
    <path class="st0" d="M218,7h1.2v1h-1.2v2.9c0,.5.2.8.8.8s.4,0,.4,0v.9c0,0-.4.1-.7.1-.9,0-1.6-.6-1.6-1.6v-3.1h-1.1v-1h.3c.6,0,.9-.4.9-.9v-.9h1v1.8h0Z"/>
    <path class="st0" d="M160.6,17.3v7.2h-1.1v-7.2h-2.7v-1.1h6.7v1.1h-2.8Z"/>
    <path class="st0" d="M168.5,22.9c-.3,1-1.2,1.8-2.5,1.8s-2.8-1.1-2.8-3,1.3-2.9,2.7-2.9,2.7,1.2,2.7,2.9,0,.3,0,.4h-4.2c0,1,.7,1.7,1.7,1.7s1.4-.5,1.6-1.1l1,.3ZM167.4,21.1c0-.8-.5-1.4-1.5-1.4s-1.5.7-1.5,1.4h3.1Z"/>
    <path class="st0" d="M170.9,21.7c0,1.3.8,2,1.7,2s1.4-.7,1.6-1.1l1,.4c-.3.8-1.1,1.7-2.5,1.7s-2.8-1.3-2.8-3,1.2-3,2.8-3,2.2.9,2.5,1.8l-1,.4c-.2-.5-.5-1.2-1.5-1.2s-1.8.7-1.8,2Z"/>
    <path class="st0" d="M177.9,24.5h-1.1v-8.4h1.1v3.5c.4-.6,1.1-.8,1.7-.8,1.3,0,2,1,2,2.2v3.5h-1.1v-3.4c0-.8-.3-1.4-1.3-1.4s-1.3.7-1.3,1.5v3.3h0Z"/>
    <path class="st0" d="M184.7,24.5h-1.1v-5.6h1.1v.8c.4-.7,1.1-1,1.7-1,1.3,0,2,1,2,2.2v3.5h-1.1v-3.4c0-.8-.3-1.4-1.3-1.4s-1.3.7-1.3,1.5v3.3h0Z"/>
    <path class="st0" d="M195.8,21.7c0,1.7-1.2,3-2.9,3s-2.9-1.3-2.9-3,1.2-3,2.9-3,2.9,1.3,2.9,3ZM194.7,21.7c0-1.3-.8-2-1.7-2s-1.7.7-1.7,2,.8,2,1.7,2,1.7-.7,1.7-2Z"/>
    <path class="st0" d="M197.5,24.5v-8.4h1.1v8.4h-1.1Z"/>
    <path class="st0" d="M206.1,21.7c0,1.7-1.2,3-2.9,3s-2.9-1.3-2.9-3,1.2-3,2.9-3,2.9,1.3,2.9,3ZM204.9,21.7c0-1.3-.8-2-1.7-2s-1.7.7-1.7,2,.8,2,1.7,2,1.7-.7,1.7-2Z"/>
    <path class="st0" d="M208.5,24.5c0,.8.7,1.4,1.5,1.4s1.7-.6,1.7-1.8v-.8c-.3.5-.9.9-1.7.9-1.5,0-2.5-1.1-2.5-2.7s1-2.7,2.5-2.7,1.4.3,1.7.9v-.8h1.1v5.1c0,1.4-.7,2.8-2.8,2.8s-2.4-.9-2.6-2.1l1-.2ZM211.7,21.5c0-1.1-.7-1.8-1.6-1.8s-1.6.7-1.6,1.8.6,1.8,1.6,1.8c1,0,1.6-.7,1.6-1.8Z"/>
    <path class="st0" d="M215.4,16c.4,0,.8.4.8.8s-.4.8-.8.8-.8-.4-.8-.8.4-.8.8-.8ZM214.8,24.5v-5.6h1.1v5.6h-1.1Z"/>
    <path class="st0" d="M223,22.9c-.3,1-1.2,1.8-2.5,1.8s-2.8-1.1-2.8-3,1.3-2.9,2.7-2.9,2.7,1.2,2.7,2.9,0,.3,0,.4h-4.2c0,1,.7,1.7,1.7,1.7s1.4-.5,1.6-1.1l1,.3ZM221.9,21.1c0-.8-.5-1.4-1.5-1.4s-1.5.7-1.5,1.4h3.1Z"/>
    <path class="st0" d="M225.3,22.7c0,.6.5,1.1,1.3,1.1s.9-.4.9-.7-.3-.6-.7-.7l-.9-.2c-.9-.2-1.4-.8-1.4-1.6s.9-1.8,2-1.8,2,1,2.1,1.5l-1,.4c0-.3-.3-.9-1.2-.9s-.9.4-.9.7.2.6.6.7l.9.2c1,.2,1.5.8,1.5,1.6s-.7,1.7-2,1.7-2.2-1-2.3-1.6l1.1-.4Z"/>
  </g>
</svg>