<?xml version="1.0" encoding="UTF-8"?>
<svg xmlns="http://www.w3.org/2000/svg" version="1.1" xmlns:cc="http://creativecommons.org/ns#" xmlns:dc="http://purl.org/dc/elements/1.1/" xmlns:inkscape="http://www.inkscape.org/namespaces/inkscape" xmlns:rdf="http://www.w3.org/1999/02/22-rdf-syntax-ns#" xmlns:sodipodi="http://sodipodi.sourceforge.net/DTD/sodipodi-0.dtd" xmlns:svg="http://www.w3.org/2000/svg" viewBox="0 0 229.3 54.6">
  <!-- Generator: Adobe Illustrator 29.3.1, SVG Export Plug-In . SVG Version: 2.1.0 Build 151)  -->
  <defs>
    <style>
      .st0 {
        fill: #f68712;
      }

      .st1 {
        fill: #841960;
      }

      .st2 {
        fill: #7b7979;
      }
    </style>
  </defs>
  <g id="svg8858" inkscape:version="0.92.2 (5c3e80d, 2017-08-06)">
    <sodipodi:namedview id="base" bordercolor="#666666" borderopacity="1.0" fit-margin-bottom="5" fit-margin-left="5" fit-margin-right="5" fit-margin-top="5" inkscape:current-layer="layer1" inkscape:cx="80.335274" inkscape:cy="3.1342625" inkscape:document-units="mm" inkscape:pageopacity="0.0" inkscape:pageshadow="2" inkscape:window-height="837" inkscape:window-maximized="1" inkscape:window-width="1600" inkscape:window-x="-8" inkscape:window-y="-8" inkscape:zoom="3.959798" pagecolor="#ffffff" showgrid="false" units="px"/>
    <g id="layer1" inkscape:groupmode="layer" inkscape:label="Calque 1">
      <path id="path8632" class="st0" d="M113.3,16.3l-1-2.8h-5.7l-1,2.8h-3.3L108.2.1h2.5l5.9,16.1h-3.3ZM109.5,4.9l-2,5.9h4l-2-5.9" inkscape:connector-curvature="0"/>
      <path id="path8636" class="st0" d="M126,16.3l-3.2-6.4h-2.3v6.4h-3.2V.1h6.3c3.3,0,5.2,2.2,5.2,4.9s-1.4,3.7-3,4.2l3.6,6.9h-3.6ZM123.6,2.9h-3v4.3h3c1.4,0,2.3-.9,2.3-2.1s-.9-2.1-2.3-2.1" inkscape:connector-curvature="0"/>
      <path id="path8640" class="st0" d="M137.3,2.9v13.3h-3.1V2.9h-4.2V.1h11.6v2.8h-4.2" inkscape:connector-curvature="0"/>
      <path id="path8644" class="st0" d="M147.4,16.4c-2.5,0-4.3-.5-5.9-2.1l2-2c1,1,2.4,1.4,3.9,1.4s2.9-.7,2.9-2-.2-1-.5-1.4c-.3-.3-.7-.5-1.4-.6l-1.9-.3c-1.4-.2-2.4-.6-3.1-1.3-.8-.8-1.2-1.8-1.2-3.2C142.1,2,144.2,0,147.7,0s3.8.5,5.2,1.9l-2,2c-1-1-2.2-1.1-3.3-1.1-1.7,0-2.5.9-2.5,2s.1.8.5,1.2c.3.3.8.5,1.5.6l1.9.3c1.5.2,2.4.6,3.1,1.2.9.8,1.2,2,1.2,3.4,0,3.1-2.6,4.9-6,4.9" inkscape:connector-curvature="0"/>
      <path id="path8648" class="st1" d="M116.8,35v-16.1h10.6v2.8h-7.5v3.8h6.4v2.8h-6.4v3.9h7.5v2.8h-10.6" inkscape:connector-curvature="0"/>
      <path id="path8652" class="st1" d="M135.5,21.7v13.3h-3.2v-13.3h-4.2v-2.8h11.6v2.8h-4.2" inkscape:connector-curvature="0"/>
      <path id="path8656" class="st1" d="M156.7,35v-9.4l-3.1,6.1h-2.1l-3.1-6.1v9.4h-3.1v-16.1h3.1l4.2,8.7,4.2-8.7h3.1v16.1h-3.1" inkscape:connector-curvature="0"/>
      <path id="path8660" class="st1" d="M162.5,35v-16.1h10.6v2.8h-7.5v3.8h6.4v2.8h-6.4v3.9h7.5v2.8h-10.6" inkscape:connector-curvature="0"/>
      <path id="path8664" class="st1" d="M181.2,21.7v13.3h-3.1v-13.3h-4.2v-2.8h11.6v2.8h-4.2" inkscape:connector-curvature="0"/>
      <path id="path8666" class="st1" d="M186.9,35h3.1v-16.1h-3.1v16.1Z" inkscape:connector-curvature="0"/>
      <path id="path8670" class="st1" d="M192.6,35v-16.1h10.6v2.8h-7.5v3.8h6.4v2.8h-6.4v3.9h7.5v2.8h-10.6" inkscape:connector-curvature="0"/>
      <path id="path8674" class="st1" d="M213.8,35l-3.1-6.4h-2.3v6.4h-3.1v-16.1h6.3c3.3,0,5.2,2.2,5.2,4.9s-1.4,3.7-2.9,4.2l3.6,7h-3.6ZM211.3,21.7h-3v4.3h3c1.4,0,2.3-.9,2.3-2.1s-.9-2.1-2.3-2.1" inkscape:connector-curvature="0"/>
      <path id="path8678" class="st1" d="M223.3,35.2c-2.5,0-4.3-.5-5.9-2.1l2-2c1,1,2.4,1.4,3.9,1.4s2.9-.7,2.9-2-.2-1-.5-1.4c-.3-.3-.7-.5-1.4-.6l-1.9-.3c-1.4-.2-2.4-.6-3.1-1.3-.8-.8-1.1-1.8-1.1-3.2,0-2.9,2.1-4.9,5.6-4.9s3.8.5,5.2,1.9l-2,2c-1-1-2.2-1.1-3.3-1.1-1.7,0-2.5.9-2.5,2s.1.8.5,1.2c.3.3.8.5,1.5.6l1.9.3c1.5.2,2.4.6,3.1,1.2.9.8,1.2,2,1.2,3.4,0,3.1-2.6,4.9-6,4.9" inkscape:connector-curvature="0"/>
      <path id="path8682" class="st1" d="M169.2,12.4l-1.3,2.2-1.3,2.2h2.9s2.6-4.4,2.6-4.4h-2.9" inkscape:connector-curvature="0"/>
      <path id="path8686" class="st1" d="M89.4,27.3h-36.7s16.1,27.3,16.1,27.3h36.7s-16.1-27.3-16.1-27.3" inkscape:connector-curvature="0"/>
      <path id="path8690" class="st1" d="M16.1,27.3h36.7s-16.1,27.3-16.1,27.3H0s16.1-27.3,16.1-27.3" inkscape:connector-curvature="0"/>
      <path id="path8694" class="st0" d="M52.7,27.3L68.8,0h-36.7s-16.1,27.3-16.1,27.3h36.7" inkscape:connector-curvature="0"/>
      <path id="path8698" class="st2" d="M119,40c.8,0,2.6,0,3.8,0,2.1.2,2.9,1.3,2.9,2.8s-1.5,3.3-4.1,3.5c-.9,0-1.9,0-2.6,0v-6.3ZM119,47.2c.7,0,2.4.1,3.5,0,3.7-.6,5.6-1.8,5.6-4.4s-1.7-3.6-6.7-3.6h-4.7v14.9c.4,0,.8,0,1.1,0s.7,0,1.1,0v-6.8" inkscape:connector-curvature="0"/>
      <path id="path8702" class="st2" d="M134.7,49.1c0,.6,0,1,0,1.6-.2,1.4-1.3,2.9-3,3-1.5,0-2.2-1.1-2.1-2.2.2-2.4,1.2-2.1,4-3l1.1-.4v1ZM134.7,47.6l-.4.2c-1,.4-.9.3-2.7.7-2,.4-4.2.7-4.3,3,0,1.5,1.5,2.6,3.2,2.7,1.7,0,3.4-.7,4-2.1v1.8h3.4v-.4h-1.2v-6.5c0-1.7-.3-3.3-4-3.5-1,0-.9,0-1.6.1-.8.1-1.6.4-2.2.6v3.1h.5l.6-1.3c.5-1.1.6-2.3,2.4-2.2,1.8.2,2.1,1.2,2.1,2.2v1.5" inkscape:connector-curvature="0"/>
      <path id="path8706" class="st2" d="M145.1,54h-5.1v-.4h1.3v-9.4h-1.3v-.4h3.3v2.1c.1-.8,1.3-2.2,3.2-2.2s1,.1,1.5.4v3.7h-.5l-.7-1.7c-.5-1.2-.8-2-1.6-1.6-1.9.9-1.7,3.1-1.7,5.2v4h1.7v.4" inkscape:connector-curvature="0"/>
      <path id="path8710" class="st2" d="M149.2,54v-.4h1.3v-9.4h-1.2v-.4h3.4v9.8h1.2v.4h-4.6" inkscape:connector-curvature="0"/>
      <path id="path8714" class="st2" d="M162.6,46.2c-.5-1.6-1.1-2.2-2.5-2.2s-2.9.4-3,1.7c0,1.2,1.4,1.6,2.6,2,2.2.6,4.7,1.3,4.7,3.3,0,2-2,3.4-4.6,3.3-1.5,0-3.2-.5-3.8-.9v-3.3h.5l.6,1.7c.6,1.9,1.4,1.9,2.5,2,1.6.1,3.4-.5,3.6-1.8.2-1.6-2.4-2-4-2.5-1.1-.3-3.4-1-3.4-2.9s2.9-3,4.5-3,2.8.4,3.3.7v3.1h-.5l-.4-1.1" inkscape:connector-curvature="0"/>
      <path id="path8718" class="st2" d="M170,54c-.4,0-.8,0-1.1,0s-.8,0-1.1,0v-13.9c-2.6,0-4.2.1-5.7.3,0-.2,0-.4,0-.7s0-.4,0-.6h13.5c0,.2,0,.4,0,.6s0,.4,0,.7c-1.3-.1-3.1-.3-5.5-.3v13.9" inkscape:connector-curvature="0"/>
      <path id="path8722" class="st2" d="M175.8,46.1c.2-1.1,1.1-2.2,2.3-2.2,1.5,0,2.1,1.2,2.1,2.4v1.1s-4.6,0-4.6,0l.2-1.3ZM182.6,50.1h-.5v.3c-.2,1.4-1.3,3.4-3.5,3.3-2.5-.1-3-2.3-3-4.7v-1.2h7c.3-2.2-1.5-4.4-4.4-4.4-2.9,0-4.9,2.5-5,5.3-.2,3.1,2.2,5.5,5.2,5.5,2.4,0,4-1.8,4.2-3.8v-.3" inkscape:connector-curvature="0"/>
      <path id="path8726" class="st2" d="M192.7,47.6l-.3-.8c-.6-2-1.3-2.9-2.6-3-2.7,0-3.2,2.9-3.1,5.1,0,2.1.3,4.7,3.1,4.7,1.7,0,2.7-1.3,3-2.7l.2-.8h.5v.5c-.5,2.7-2.3,3.5-4.2,3.5-3.2,0-5-2.8-5-5.4s2.1-5.3,5.4-5.4c.8,0,2.3,0,3.6.7v3.6h-.5" inkscape:connector-curvature="0"/>
      <path id="path8730" class="st2" d="M201.4,54v-.4h1.5v-6.7c0-1.3,0-2.7-1.6-2.6-2.4,0-2.7,2.8-2.7,4.9v4.4h1.6v.4h-4.9v-.4h1.2v-13h-1.3v-.4h3.4v5.3c.3-.9,1.8-2,3.3-1.9,2.3.2,3.1,1,3.1,3.1v6.8h1.2v.4h-4.8" inkscape:connector-curvature="0"/>
      <path id="path8734" class="st2" d="M152.7,40.4c0,.7-.6,1.1-1.4,1.1s-1.4-.5-1.4-1.1.6-1.1,1.3-1.1,1.4.5,1.4,1.1" inkscape:connector-curvature="0"/>
    </g>
  </g>
</svg>