<?xml version="1.0" encoding="UTF-8"?>
<svg id="svg8" xmlns="http://www.w3.org/2000/svg" version="1.1" xmlns:cc="http://creativecommons.org/ns#" xmlns:dc="http://purl.org/dc/elements/1.1/" xmlns:osb="http://www.openswatchbook.org/uri/2009/osb" xmlns:rdf="http://www.w3.org/1999/02/22-rdf-syntax-ns#" xmlns:svg="http://www.w3.org/2000/svg" xmlns:xlink="http://www.w3.org/1999/xlink" viewBox="0 0 1739.3 1265.7">
  <!-- Generator: Adobe Illustrator 29.3.1, SVG Export Plug-In . SVG Version: 2.1.0 Build 151)  -->
  <defs>
    <style>
      .st0 {
        fill: #fc0103;
      }

      .st1 {
        fill: url(#Dégradé_sans_nom_2);
      }

      .st2 {
        fill: url(#Dégradé_sans_nom);
      }

      .st3 {
        fill: url(#Dégradé_sans_nom_4);
      }

      .st4 {
        fill: url(#Dégradé_sans_nom_3);
      }

      .st5 {
        fill: url(#Dégradé_sans_nom_5);
      }
    </style>
    <linearGradient id="Dégradé_sans_nom" data-name="Dégradé sans nom" x1="348.6" y1="1461.9" x2="506.9" y2="1289.9" gradientTransform="translate(-90.2 4468.5) scale(2.8 -2.8)" gradientUnits="userSpaceOnUse">
      <stop offset="0" stop-color="#0186f5"/>
      <stop offset=".1" stop-color="#0186f5"/>
      <stop offset=".3" stop-color="#35c2b0"/>
      <stop offset=".7" stop-color="#aad825"/>
      <stop offset="1" stop-color="#fed700"/>
    </linearGradient>
    <linearGradient id="Dégradé_sans_nom_2" data-name="Dégradé sans nom 2" x1="220.8" y1="1303.6" x2="222.1" y2="1411.5" gradientTransform="translate(-90.2 4468.5) scale(2.8 -2.8)" gradientUnits="userSpaceOnUse">
      <stop offset="0" stop-color="#ff7f00"/>
      <stop offset="1" stop-color="#fe0201"/>
    </linearGradient>
    <linearGradient id="Dégradé_sans_nom_3" data-name="Dégradé sans nom 3" x1="380.3" y1="1528.7" x2="555.2" y2="1525.3" gradientTransform="translate(-90.2 4468.5) scale(2.8 -2.8)" gradientUnits="userSpaceOnUse">
      <stop offset="0" stop-color="#0186f5"/>
      <stop offset=".2" stop-color="#0186f5"/>
      <stop offset="1" stop-color="#3156fd"/>
    </linearGradient>
    <linearGradient id="Dégradé_sans_nom_4" data-name="Dégradé sans nom 4" x1="581.9" y1="1439.3" x2="598" y2="1471.1" gradientTransform="translate(-90.2 4468.5) scale(2.8 -2.8)" gradientUnits="userSpaceOnUse">
      <stop offset="0" stop-color="#8434d5"/>
      <stop offset=".9" stop-color="#3156fd"/>
      <stop offset="1" stop-color="#3156fd"/>
    </linearGradient>
    <linearGradient id="Dégradé_sans_nom_5" data-name="Dégradé sans nom 5" x1="546.4" y1="1431.7" x2="412.2" y2="1425.3" gradientTransform="translate(-90.2 4468.5) scale(2.8 -2.8)" gradientUnits="userSpaceOnUse">
      <stop offset="0" stop-color="#8434d5"/>
      <stop offset="1" stop-color="#fe0201"/>
    </linearGradient>
  </defs>
  <g id="layer1">
    <path id="path2847" class="st2" d="M952.2,114c-53.7,42.8-105.2,99.4-135,161.4-61.4,127.4-27.4,244.4-1.1,320.4,35.8,103.5,108.4,155.7,195,193.8,123.4,54.4,278.4,58.1,419.2,21.7,49.6-12.8,126.7-39.5,143.5-64.3,18.2-26.9,21.1-79-18.1-101.8-38.1-22.3-41.9-5.3-155.5,20-79.1,17.6-165.4,20.6-269.2-24.2-65.4-28.2-109.7-71.6-124.8-130.8-43.4-169.9,50.3-232.9,68.6-244.4l-122.7-151.8Z"/>
    <path id="path2847-3" class="st1" d="M1081.4,314c-48.8-6.5-192.1-21.7-342-48.2-231.9-41.1-504.6-98.2-591.7-104.3-167.5-11.7-195.5,205.9-61.7,243.2,75.7,21.1,284.2-1.1,334.9,99,15.4,30.5,56.3,145.4,102.5,287.6,18.1,55.8,165.6,47,138.2-71.8-15.7-67.9-51.3-251.1-51.3-251.1,0,0,422.9,44.8,457.3,47.8l13.8-202Z"/>
    <path id="path2847-3-6" class="st4" d="M1304.1,202.1c53.7,1.4,147.2,15.2,189.2,43.4l234.7,46.3c2.2-130.3-69.2-200.4-149.3-240.8-60.8-30.7-146-55.6-273.9-50.2-122.3,5.2-250.9,32-353.5,113.8l122.6,152c57.8-36.4,130.5-67.1,230.2-64.5h0Z"/>
    <path id="path2847-3-67" class="st3" d="M1489.6,243.1s12.4,7.9,17.7,12.8c25.6,23.4,34,51.3-43.5,64.1l61.3,189.7c139.6-37.4,201.1-119.7,202.9-220.3l-238.4-46.3Z"/>
    <path id="path2847-3-0" class="st5" d="M1466.2,319.6c-68.7,11.4-202,18.7-385.8-5.6l-13.8,202c298.4,25.8,403.3,8.2,460.9-7.2l-61.3-189.2Z"/>
    <g id="text3093">
      <path id="path3095" class="st0" d="M0,1049.4c0,3.6,2.8,6.3,6.2,6.3h56.3v150.3h37.1c0,.1,0-150.3,0-150.3h56.3c3.4,0,6.2-2.7,6.2-6.3v-23.2c0-3.6-2.8-6.3-6.2-6.3H6.2C2.8,1019.9,0,1022.6,0,1026.2v23.2Z"/>
      <path id="path3097" class="st0" d="M132,1137.5c0,39.6,33.2,70.4,74.3,70.4s74.6-30.8,74.6-70.4-33.2-71.2-74.6-71.2-74.3,31.3-74.3,71.2ZM173.1,1137.2c0-18.7,14.4-34.1,33.2-34.1s33.5,15.4,33.5,34.1-14.4,33.8-33.5,33.8-33.2-15.1-33.2-33.8Z"/>
      <path id="path3099" class="st0" d="M305.1,1166.3c0,30.5,23.4,42.9,47,42.9s32.5-2.2,42.9-10.2c17.1-13,2.8-39.5-20.5-26.4-6.9,3.9-18.3,1.9-20.4,1.1-4.7-1.9-12.9-3.5-12.4-16.7v-57.7h34.4c26.4,0,26-33.3,0-33.3h-34.4v-45.5h-36.6c0-.1,0,45.5,0,45.5h-18v33.3h18v67Z"/>
      <path id="path3101" class="st0" d="M409,1137c0,43.2,32.9,70.9,68.4,70.9s37.4-7.7,43.8-18.1v18.3h34v-124.4c0-24.3-33.3-23.1-33.3-1.3-6.5-10.4-26-16.1-44.3-16.1-35.5,0-68.7,27.2-68.7,70.7h0ZM450.1,1137.2c0-18.7,14.4-34.1,33.5-34.1s33.5,15.4,33.5,34.1-14.4,34.1-33.5,34.1-33.5-15.4-33.5-34.1Z"/>
      <path id="path3103" class="st0" d="M625.6,1206.2v-169.9c0-21.5-38.4-20.8-38.4,0v169.9h38.4Z"/>
      <path id="path3105" class="st0" d="M658.9,1017.8c-3.7,0-6.2,2.7-6.2,6v176c0,3.6,2.5,6.3,6.2,6.3h124.5v-37.9c.1,0-88.4,0-88.4,0v-36h69.4c3.7,0,6.2-3,6.2-6.3v-24.2c0-3.6-2.5-6.3-6.2-6.3h-69.4v-39.6h80c3.7,0,6.5-2.7,6.5-6.3v-25.3c0-3.6-2.8-6.3-6.5-6.3h-116Z"/>
      <path id="path3107" class="st0" d="M908.8,1200.6c0,3.3,3.1,5.5,6.2,5.5h24.3c3.1,0,6.2-2.2,6.2-5.5v-74.2c0-32.7-18.9-62.3-55.2-62.3s-42,6.3-50.2,15.9c0-19.7-32.2-20.6-32.2-1.7v128h36.4c0,.1,0-75.4,0-75.4,0-46.6,64.6-39.2,64.6,0v69.8Z"/>
      <path id="path3111" class="st0" d="M1206,1062.9c-20,0-36.4,11.9-44,23.7v-8.9c0-16.6-30.5-18.4-30.5.6v127.4l35.9.5v-65c0-19.6,13.1-41.1,27.2-43.4l14.5-2.4c23.2,0,19.4-32.5-3.1-32.5h0Z"/>
      <path id="path3113" class="st0" d="M1302,1232.1c-18.6,0-36.3-1-45.8-6.3-22.8-12.7-36.3,15.2-22.1,23.4,19.2,11.1,28.8,16.5,64.8,16.5s71.2-25.5,71.2-62.9v-124.5c0-16.4-31.9-18.3-31.9-2.1v8.5c-6.8-10.4-26.1-16.3-44.7-16.3-35.5,0-67.5,26.9-67.5,69.6s31.8,69,69.2,69,32.6-7.7,38.8-17v11.5c0,17.9-10.3,30.7-32,30.7h0ZM1267,1137.9c0-18.7,14.4-33.3,33.2-33.3s33.5,14.6,33.5,33.3-14.4,33.3-33.5,33.3-33.2-14.3-33.2-33.3Z"/>
      <path id="path3115" class="st0" d="M1418.8,1049.6c12,0,21.9-10.2,21.9-22.2s-9.9-22.5-21.9-22.5-22.2,10.2-22.2,22.5,9.9,22.2,22.2,22.2ZM1431.5,1206.1c3.1,0,5.4-2.6,5.4-5.6v-115.4c0-24.3-36.7-24.3-36.7,0v115.4c0,3.1,2.6,5.6,5.6,5.6h25.8Z"/>
      <path id="path3117" class="st0" d="M1532.4,1063.9c-43,0-74,33-74,74s30.4,72.6,74.6,72.6,48.9-9.1,60.4-23.9c7-12.1-9.5-26.9-24.1-18.5-13,8.8-21.9,7.6-35.4,7.6s-30.7-11.1-32.7-28.5h91.7c5.7,0,7.2-3.1,7.2-6.5v-7.7c0-35.6-23.4-69.2-67.6-69.2h0ZM1563.3,1121.7h-61.4c4-15.4,16.6-24.8,30.7-24.8s27,8,30.7,24.8Z"/>
      <path id="path3119" class="st0" d="M1674.7,1062.8c-37.7,0-61.1,20-61.1,45.4s15.5,36.6,38.6,41.1l23.4,4.9c13.4,2.6,20.5,5.4,20.5,12.3s-6.4,11.7-19.6,11.7-28.6-2.6-37.6-10.3c-20.1-10.4-37.9,11.6-17.9,26.6,11.7,8,30.1,15.4,54,15.4,38.9,0,64.3-20.3,64.3-47.1s-19.9-37.4-44.1-42l-22.5-4.3c-12-2.3-16.4-6-16.4-11.4s7.3-10.3,18.4-10.3,22.1,1.2,30.9,6.9c17.6,10.2,35.6-11.5,19.3-25.2-8.8-7.7-21.8-13.8-50.1-13.8h0Z"/>
      <path id="path3117-5" class="st0" d="M1041.5,1063.9c-43,0-74,33-74,74s30.4,72.6,74.6,72.6,48.9-9.1,60.4-23.9c7-12.1-9.5-26.9-24.1-18.5-13,8.8-21.9,7.6-35.4,7.6s-30.7-11.1-32.7-28.5h91.7c5.7,0,7.2-3.1,7.2-6.5v-7.7c0-35.6-23.4-69.2-67.6-69.2h0ZM1072.5,1121.7h-61.4c4-15.4,16.6-24.8,30.7-24.8s27,8,30.7,24.8Z"/>
    </g>
  </g>
</svg>